<svg width="24" height="24" viewBox="0 0 24 24" fill="none" xmlns="http://www.w3.org/2000/svg">
<path fill-rule="evenodd" clip-rule="evenodd" d="M21.75 19.5C21.75 20.7426 20.7426 21.75 19.5 21.75H4.5C3.25736 21.75 2.25 20.7426 2.25 19.5V4.5C2.25 3.25736 3.25736 2.25 4.5 2.25H19.5C20.7426 2.25 21.75 3.25736 21.75 4.5V19.5ZM4.5 3.75C4.08579 3.75 3.75 4.08579 3.75 4.5V8.25H20.25V4.5C20.25 4.08579 19.9142 3.75 19.5 3.75H4.5ZM20.25 15.75V19.5C20.25 19.9142 19.9142 20.25 19.5 20.25H4.5C4.08579 20.25 3.75 19.9142 3.75 19.5V15.75H20.25ZM3.75 14.25V9.75H20.25V14.25H3.75Z" fill="#4E5969"/>
</svg>
