<svg width="24" height="24" viewBox="0 0 24 24" fill="none" xmlns="http://www.w3.org/2000/svg">
<path fill-rule="evenodd" clip-rule="evenodd" d="M19.5 21.75C20.7426 21.75 21.75 20.7426 21.75 19.5V4.5C21.75 3.25736 20.7426 2.25 19.5 2.25H4.5C3.25736 2.25 2.25 3.25736 2.25 4.5V19.5C2.25 20.7426 3.25736 21.75 4.5 21.75H19.5ZM4.5 3.75C4.08579 3.75 3.75 4.08579 3.75 4.5V19.5C3.75 19.9142 4.08579 20.25 4.5 20.25H11.25V3.75H4.5ZM12.75 20.25H19.5C19.9142 20.25 20.25 19.9142 20.25 19.5V12.75H12.75V20.25ZM12.75 11.25V3.75H19.5C19.9142 3.75 20.25 4.08579 20.25 4.5V11.25H12.75Z" fill="#4E5969"/>
</svg>
