<svg width="24" height="24" viewBox="0 0 24 24" fill="none" xmlns="http://www.w3.org/2000/svg">
<path fill-rule="evenodd" clip-rule="evenodd" d="M19.5 2.25H4.5C3.25736 2.25 2.25 3.25736 2.25 4.5V19.5C2.25 20.7426 3.25736 21.75 4.5 21.75H19.5C20.7426 21.75 21.75 20.7426 21.75 19.5V4.5C21.75 3.25736 20.7426 2.25 19.5 2.25ZM4.5 3.75C4.08579 3.75 3.75 4.08579 3.75 4.5V11.25H11.25V3.75H4.5ZM11.25 12.75H3.75V19.5C3.75 19.9142 4.08579 20.25 4.5 20.25H11.25V12.75ZM12.75 12.75H20.25V19.5C20.25 19.9142 19.9142 20.25 19.5 20.25H12.75V12.75ZM20.25 11.25H12.75V3.75H19.5C19.9142 3.75 20.25 4.08579 20.25 4.5V11.25Z" fill="#4E5969"/>
</svg>
